<?xml version="1.0" encoding="UTF-8"?><svg id="a" xmlns="http://www.w3.org/2000/svg" viewBox="0 0 566.93 566.93"><defs><style>.b{fill:#00aeef;}.c{fill:#231f20;}.d{fill:none;stroke:#231f20;stroke-miterlimit:10;stroke-width:5px;}</style></defs><path class="c" d="M192.07,267.7l22.71,34.37v-34.69c0-2.25,.48-3.94,1.45-5.07,.97-1.13,2.27-1.69,3.92-1.69s3.04,.56,4.02,1.69c.98,1.13,1.47,2.82,1.47,5.07v45.86c0,5.12-2.12,7.68-6.36,7.68-1.06,0-2.02-.15-2.86-.46-.85-.31-1.64-.79-2.39-1.45-.74-.66-1.43-1.44-2.07-2.33-.64-.89-1.27-1.8-1.91-2.72l-22.16-33.97v34.17c0,2.23-.52,3.91-1.55,5.05s-2.36,1.71-3.98,1.71-3.01-.58-4.02-1.73c-1.01-1.15-1.51-2.83-1.51-5.03v-44.99c0-1.91,.21-3.41,.64-4.49,.5-1.19,1.34-2.17,2.51-2.92,1.17-.76,2.43-1.13,3.78-1.13,1.06,0,1.97,.17,2.72,.52,.76,.34,1.42,.81,1.99,1.39,.57,.58,1.15,1.34,1.75,2.27,.6,.93,1.21,1.9,1.85,2.9Z"/><path class="c" d="M272.88,298.84c0,3.24-.5,6.22-1.51,8.95-1.01,2.73-2.47,5.08-4.38,7.04-1.91,1.96-4.19,3.47-6.84,4.51-2.65,1.05-5.64,1.57-8.95,1.57s-6.24-.53-8.87-1.59-4.9-2.58-6.82-4.55c-1.92-1.98-3.38-4.31-4.38-7-.99-2.69-1.49-5.67-1.49-8.93s.5-6.3,1.51-9.03c1.01-2.73,2.45-5.06,4.34-7,1.88-1.94,4.16-3.43,6.84-4.47,2.68-1.05,5.63-1.57,8.87-1.57s6.27,.53,8.95,1.59c2.68,1.06,4.97,2.57,6.88,4.53,1.91,1.96,3.36,4.3,4.36,7s1.49,5.69,1.49,8.95Zm-10.9,0c0-4.43-.97-7.88-2.92-10.34s-4.57-3.7-7.86-3.7c-2.12,0-3.99,.55-5.61,1.65-1.62,1.1-2.86,2.72-3.74,4.87s-1.31,4.65-1.31,7.52,.43,5.32,1.29,7.44c.86,2.12,2.09,3.75,3.7,4.87,1.6,1.13,3.49,1.69,5.67,1.69,3.29,0,5.91-1.24,7.86-3.72,1.95-2.48,2.92-5.91,2.92-10.28Z"/><path class="c" d="M350.92,298.84c0,3.24-.5,6.22-1.51,8.95-1.01,2.73-2.47,5.08-4.38,7.04-1.91,1.96-4.19,3.47-6.84,4.51s-5.63,1.57-8.95,1.57-6.24-.53-8.87-1.59c-2.63-1.06-4.9-2.58-6.82-4.55-1.92-1.98-3.38-4.31-4.38-7-.99-2.69-1.49-5.67-1.49-8.93s.5-6.3,1.51-9.03c1.01-2.73,2.45-5.06,4.34-7,1.88-1.94,4.16-3.43,6.84-4.47,2.68-1.05,5.63-1.57,8.87-1.57s6.27,.53,8.95,1.59c2.68,1.06,4.97,2.57,6.88,4.53,1.91,1.96,3.36,4.3,4.36,7,.99,2.7,1.49,5.69,1.49,8.95Zm-10.9,0c0-4.43-.97-7.88-2.92-10.34-1.95-2.47-4.57-3.7-7.86-3.7-2.12,0-3.99,.55-5.61,1.65-1.62,1.1-2.86,2.72-3.74,4.87s-1.31,4.65-1.31,7.52,.43,5.32,1.29,7.44c.86,2.12,2.09,3.75,3.7,4.87,1.6,1.13,3.49,1.69,5.67,1.69,3.29,0,5.91-1.24,7.86-3.72,1.95-2.48,2.92-5.91,2.92-10.28Z"/><path class="c" d="M390.09,306.7c0,3-.73,5.56-2.19,7.7-1.46,2.13-3.61,3.75-6.46,4.85s-6.32,1.65-10.4,1.65-7.24-.6-10.02-1.79-4.84-2.68-6.17-4.47-1.99-3.59-1.99-5.39c0-1.19,.42-2.21,1.27-3.06,.85-.85,1.92-1.27,3.22-1.27,1.14,0,2.02,.28,2.63,.84s1.19,1.34,1.75,2.35c1.11,1.94,2.45,3.38,4,4.34s3.67,1.43,6.34,1.43c2.17,0,3.96-.48,5.35-1.45,1.39-.97,2.09-2.07,2.09-3.32,0-1.91-.72-3.3-2.17-4.18s-3.82-1.71-7.14-2.51c-3.74-.93-6.78-1.9-9.13-2.92-2.35-1.02-4.22-2.37-5.63-4.04s-2.11-3.73-2.11-6.17c0-2.17,.65-4.23,1.95-6.17,1.3-1.94,3.22-3.48,5.75-4.63s5.59-1.73,9.17-1.73c2.81,0,5.34,.29,7.58,.88,2.24,.58,4.11,1.37,5.61,2.35,1.5,.98,2.64,2.07,3.42,3.26s1.17,2.36,1.17,3.5c0,1.25-.42,2.27-1.25,3.06s-2.02,1.19-3.56,1.19c-1.11,0-2.06-.32-2.84-.95s-1.68-1.59-2.68-2.86c-.82-1.06-1.79-1.91-2.9-2.55s-2.63-.95-4.53-.95-3.59,.42-4.89,1.25-1.95,1.88-1.95,3.12c0,1.14,.48,2.08,1.43,2.8,.95,.73,2.24,1.33,3.86,1.81s3.84,1.06,6.68,1.75c3.37,.82,6.12,1.8,8.25,2.94,2.13,1.14,3.75,2.49,4.85,4.04s1.65,3.32,1.65,5.31Z"/><path class="b" d="M282.36,317.71l-13.66-78.29c-.32-1.85,.85-3.63,2.68-4.05h0c1.98-.46,3.94,.84,4.29,2.84l13.47,77.21c.32,1.82-.89,3.65-2.69,4.07l-1.37,.32c-1.25,.29-2.47-.65-2.73-2.09Z"/><path class="d" d="M259.3,235.14c-6,0,30.82,.21,24.01,.21"/><g><polygon class="b" points="314.53 251.66 255.41 256.63 255.41 256.63 313.1 251.77 314.53 251.66"/><polygon class="b" points="254.05 260.83 255.14 253.42 314.26 248.45 314.79 254.86 254.05 260.83"/></g><path class="c" d="M326.58,291.78l-21.29-63.76c-.04-.12,.02-.25,.14-.29l1.73-.58c.64-.21,1.33,.13,1.55,.77l21.13,63.27c.24,.73-.15,1.52-.88,1.77h0c-.98,.33-2.04-.2-2.37-1.18Z"/><path class="c" d="M250.44,294.12h0c-.78-.12-1.31-.85-1.19-1.63l5.83-38.96c.02-.11,.23-.23,.34-.21l2.8-.15c.11,.02,.08,.08,.07,.19l-5.81,39.26c-.15,.98-1.06,1.66-2.04,1.51Z"/><path class="c" d="M293.96,228.5v-.1c-.01-.56,.44-1.02,1-1.03l12.46-.28c.5,0-.02,.49-.01,.99v.64c.01,.25-.18,.45-.43,.45l-12.12,.19c-.49,0-.89-.38-.9-.87Z"/><path class="b" d="M283.63,320.06l-.45-.63c-1.35-1.88-.91-4.5,.97-5.84l12.98-9.3c1.37-.98,3.27-.66,4.24,.7l1.12,1.56c.98,1.37,.66,3.27-.7,4.24l-13.91,9.97c-1.37,.98-3.27,.66-4.24-.7Z"/></svg>